<svg display="none" xmlns="http://www.w3.org/2000/svg">

	<!-- Viber -->
	<symbol id="viber" viewBox="0 0 12 13">
		<g>
			<path
				d="M6.40692 7.27975C6.26968 7.41708 6.04712 7.41708 5.90979 7.27975L4.31219 5.68216C4.24627 5.61624 4.20919 5.52679 4.20919 5.43359C4.20919 5.3403 4.24627 5.25095 4.31219 5.18494L4.59619 4.90103L3.76205 4.06689L3.0787 4.75024C2.84872 4.98022 2.84881 5.3544 3.0787 5.58438L6.00756 8.51343C6.11825 8.62411 6.26638 8.685 6.42468 8.685C6.58297 8.685 6.73111 8.62402 6.84179 8.51334L7.52514 7.83008L6.69101 6.99585L6.40692 7.27975Z" />
			<path
				d="M11.4957 4.73541C11.4957 3.60831 11.0541 2.54593 10.2519 1.74384C9.4498 0.941742 8.38742 0.5 7.26041 0.5H4.75085C4.75085 0.5 4.75085 0.5 4.75076 0.5C3.62384 0.5 2.56146 0.941742 1.75946 1.74374C0.957367 2.54584 0.515625 3.60831 0.515625 4.73532V6.70792C0.515625 7.58069 0.78186 8.42032 1.28558 9.13599C1.72998 9.76733 2.32764 10.2604 3.02444 10.5732V11.7062C3.02444 12.2921 3.35248 12.4999 3.63336 12.5C3.83405 12.5 4.03482 12.4009 4.23019 12.2057L5.49243 10.9432H7.2605C8.38751 10.9432 9.44989 10.5015 10.252 9.6994C11.0541 8.89731 11.4958 7.83493 11.4958 6.70792L11.4957 4.73541ZM8.27197 8.07864L7.33997 9.01056C7.09644 9.25409 6.77179 9.38803 6.42572 9.38803C6.07965 9.38803 5.755 9.254 5.51147 9.01056L2.58252 6.08151C2.07852 5.57733 2.07852 4.75711 2.58252 4.25302L3.51453 3.32111C3.58044 3.2551 3.6698 3.21811 3.76309 3.21811C3.85629 3.21811 3.94574 3.2551 4.01166 3.32111L5.34302 4.65247C5.40894 4.71838 5.44592 4.80783 5.44592 4.90103C5.44592 4.99423 5.40894 5.08368 5.34293 5.1496L5.05902 5.4335L6.15948 6.53397L6.44348 6.24997C6.58081 6.11273 6.80338 6.11273 6.94061 6.25006L8.27197 7.58142C8.33798 7.64734 8.37497 7.73679 8.37497 7.82999C8.37497 7.92328 8.33798 8.01273 8.27197 8.07864ZM5.73944 3.91299C5.73944 3.7189 5.89682 3.56143 6.091 3.56143C7.30911 3.56143 8.30017 4.5524 8.30017 5.77042C8.30017 5.9646 8.14279 6.12198 7.94861 6.12198C7.75452 6.12198 7.59705 5.9646 7.59705 5.77042C7.59705 4.94012 6.92148 4.26456 6.091 4.26456C5.89682 4.26456 5.73944 4.10718 5.73944 3.91299ZM9.45474 6.12216C9.26056 6.12216 9.10318 5.96469 9.10318 5.7706C9.10327 4.96594 8.78989 4.20953 8.22098 3.64053C7.65198 3.07162 6.89557 2.75824 6.09091 2.75824C5.89682 2.75824 5.73935 2.60086 5.73935 2.40668C5.73935 2.21259 5.89682 2.05511 6.09091 2.05511C7.08334 2.05511 8.01636 2.44165 8.71811 3.1434C9.41995 3.84515 9.8064 4.77817 9.8063 5.7706C9.8063 5.96469 9.64893 6.12216 9.45474 6.12216Z" />
		</g>
	</symbol>

	<!-- whatsapp -->
	<symbol id="whatsapp" viewBox="0 0 13 13">
		<g>
			<path
				d="M6.49679 0.503909C3.18503 0.504612 0.500895 3.1899 0.501597 6.50165C0.501832 7.6484 0.83091 8.77103 1.44976 9.73645L0.516823 12.157C0.467141 12.2858 0.531228 12.4304 0.659965 12.4801C0.688752 12.4912 0.71932 12.4969 0.750169 12.4968C0.778793 12.497 0.807206 12.4921 0.834119 12.4823L3.33265 11.5904C6.14377 13.3412 9.84194 12.4816 11.5927 9.67045C13.3435 6.85931 12.4839 3.16116 9.6728 1.41038C8.71988 0.816872 7.61946 0.502808 6.49679 0.503909Z" />
			<path
				d="M9.35709 7.52457C9.35709 7.52457 8.74496 7.22475 8.36168 7.02487C7.92795 6.8015 7.41825 7.21976 7.17839 7.45762C6.80509 7.31422 6.46413 7.09779 6.17548 6.82099C5.89864 6.53239 5.6822 6.19144 5.53885 5.81809C5.77672 5.57774 6.19396 5.06853 5.9716 4.63479C5.77421 4.25102 5.47191 3.63889 5.47191 3.63889C5.42949 3.55471 5.34331 3.50156 5.24903 3.50146H4.74933C4.02161 3.62716 3.49249 4.26212 3.50008 5.00058C3.50008 5.78511 4.43902 7.29223 5.07216 7.92584C5.7053 8.55945 7.2124 9.49792 7.99742 9.49792C8.73587 9.50551 9.37084 8.97637 9.49653 8.24866V7.74897C9.4966 7.65368 9.44254 7.56666 9.35709 7.52457Z"
				fill="#F7F7F7" />
		</g>
	</symbol>

	<!-- telegram -->
	<symbol id="telegram" viewBox="0 0 12 13">
		<g>
			<path
				d="M4.70859 8.0907L4.51009 10.8827C4.79409 10.8827 4.91709 10.7607 5.06459 10.6142L6.39609 9.3417L9.15509 11.3622C9.66109 11.6442 10.0176 11.4957 10.1541 10.8967L11.9651 2.4107L11.9656 2.4102C12.1261 1.6622 11.6951 1.3697 11.2021 1.5532L0.557089 5.6287C-0.169411 5.9107 -0.158411 6.3157 0.433589 6.4992L3.15509 7.3457L9.47659 3.3902C9.77409 3.1932 10.0446 3.3022 9.82209 3.4992L4.70859 8.0907Z" />
		</g>
	</symbol>

	<!-- sign-icon -->
	<symbol id="sign" viewBox="0 0 8 8">
		<g>
			<path d="M0 4.65306H8V3.34694H0V4.65306ZM3.29897 0V8H4.70103V0H3.29897Z" />
		</g>
	</symbol>

	<!-- kick-scooter svg -->
	<symbol id="kick-scooter" viewBox="0 0 16 17">
		<g>
			<path
				d="M10.9689 13.3374H5.02734C5.17262 13.687 5.25299 14.0701 5.25299 14.4716C5.25299 14.8731 5.17262 15.2562 5.02734 15.6058H10.9689C10.8236 15.2562 10.7432 14.8731 10.7432 14.4716C10.7432 14.0701 10.8236 13.687 10.9689 13.3374Z" />
			<path
				d="M13.8348 11.5091L12.6858 0.5H9.57422V1.43744H11.8411L12.9037 11.6187C13.161 11.5456 13.4325 11.5064 13.713 11.5064C13.7538 11.5064 13.7944 11.5074 13.8348 11.5091Z" />
			<path
				d="M15.7398 14.4724C15.7398 13.3541 14.83 12.4443 13.7117 12.4443C12.5934 12.4443 11.6836 13.3541 11.6836 14.4724C11.6836 15.5907 12.5934 16.5005 13.7117 16.5005C14.83 16.5005 15.7398 15.5907 15.7398 14.4724Z" />
			<path
				d="M7.99956 8.08978C8.73951 8.08978 9.45265 8.40132 9.95615 8.94447L10.6436 8.30717C9.96334 7.57325 8.99959 7.15234 7.99956 7.15234C6.99952 7.15234 6.03577 7.57325 5.35547 8.30717L6.04296 8.94447C6.54646 8.40129 7.2596 8.08978 7.99956 8.08978Z" />
			<path
				d="M6.50781 9.74653L7.28305 10.2736C7.44425 10.0365 7.71124 9.89496 7.99725 9.89496C8.28326 9.89496 8.55025 10.0365 8.71146 10.2736L9.48669 9.74653C9.15081 9.25247 8.594 8.95752 7.99725 8.95752C7.40051 8.95752 6.8437 9.2525 6.50781 9.74653Z" />
			<path
				d="M4.31793 14.4724C4.31793 13.3541 3.40814 12.4443 2.28984 12.4443C1.17154 12.4443 0.261719 13.3541 0.261719 14.4724C0.261719 15.5907 1.1715 16.5005 2.28981 16.5005C3.40811 16.5005 4.31793 15.5907 4.31793 14.4724Z" />
		</g>
	</symbol>

	<!-- electro-scooter svg -->
	<symbol id="electro-scooter" viewBox="0 0 16 17">
		<g>
			<path d="M9.57304 5.26829L10.4347 4.89349L8.83378 0.890625H6.51172V1.82997H8.19753L9.57304 5.26829Z" />
			<path
				d="M14.2558 11.2713C13.6083 9.76645 12.2059 6.50817 11.713 5.36279L9.01365 6.53666L9.6643 8.04901L7.34036 12.163H5.9805C5.9805 10.4077 4.59434 9.15712 3.02188 9.15712H0V10.0965H3.02188C4.08803 10.0965 5.04116 10.9381 5.04116 12.163H4.49289C3.85382 11.302 2.70312 10.9269 1.66045 11.3098C0.773708 11.6329 0.0898641 12.4683 0.0350689 13.5003C-0.0560476 15.1921 1.54178 16.4646 3.15808 16.0197C3.67409 15.8772 4.15222 15.5653 4.49289 15.1063H8.79008L11.0148 11.1864C11.4409 12.1765 11.4735 12.2457 11.4744 12.2529C10.8648 13.1518 10.928 14.3351 11.5871 15.1674C12.5155 16.3588 14.3178 16.432 15.3398 15.3148C16.5854 13.9716 15.9817 11.8029 14.2558 11.2713Z" />
		</g>
	</symbol>

	<!-- mountain-bike svg -->
	<symbol id="mountain-bike" viewBox="0 0 16 17">
		<g>
			<path
				d="M12.2965 7.10321L11.4513 4.54837H12.161C12.4449 4.54837 12.6771 4.31611 12.6771 4.03224C12.6771 3.74837 12.4449 3.51611 12.161 3.51611H10.7384C10.3868 3.51611 10.1384 3.86127 10.2481 4.19353L10.7546 5.72579L10.3868 6.19353H5.98037L5.41585 5.25805H5.54488C5.82876 5.25805 6.06101 5.02579 6.06101 4.74192C6.06101 4.45805 5.82876 4.22579 5.54488 4.22579H3.93198C3.64811 4.22579 3.41585 4.45805 3.41585 4.74192C3.41585 5.02579 3.64811 5.25805 3.93198 5.25805H4.2094L6.92876 9.77418H6.36101C5.96101 7.28386 2.84166 6.11934 0.938433 8.02256C-0.316406 9.2774 -0.319632 11.2871 0.938433 12.5419C2.79327 14.3968 5.93521 13.3516 6.35779 10.8064H7.83843C7.9965 10.8064 8.14811 10.7322 8.24488 10.6097L11.1417 6.90644L11.3126 7.42579C10.2836 7.96127 9.57714 9.03869 9.57714 10.2742C9.57714 12.0451 11.0159 13.4839 12.7868 13.4839C14.5578 13.4839 15.9997 12.0451 15.9997 10.2742C15.9997 8.31934 14.2513 6.79998 12.2965 7.10321ZM4.56747 9.77418C4.36101 9.20321 3.81263 8.79676 3.17069 8.79676C2.35134 8.79676 1.68359 9.46127 1.68359 10.2839C1.68359 11.1032 2.34811 11.771 3.17069 11.771C3.80617 11.771 4.34811 11.371 4.56101 10.8097H5.3094C5.07392 11.7516 4.21908 12.4548 3.20295 12.4548C2.00617 12.4548 1.03198 11.4806 1.03198 10.2839C1.03198 9.08708 2.00617 8.11289 3.20295 8.11289C4.22553 8.11289 5.08359 8.82256 5.31263 9.77418H4.56747ZM7.89972 9.3774L6.60295 7.22579H9.58037L7.89972 9.3774ZM12.79 12.4516C11.59 12.4516 10.6126 11.4742 10.6126 10.2742C10.6126 9.49353 11.0255 8.80644 11.6449 8.42256L11.8739 9.11289C11.5288 9.38385 11.3062 9.80644 11.3062 10.2806C11.3062 11.1 11.9707 11.7677 12.7933 11.7677C13.6159 11.7677 14.2804 11.1032 14.2804 10.2806C14.2804 9.48063 13.6513 8.82902 12.8578 8.79676L12.6288 8.10321C13.9029 8.00644 14.9707 9.01934 14.9707 10.2742C14.9675 11.4742 13.99 12.4516 12.79 12.4516Z" />
		</g>
	</symbol>

	<!-- electrokick svg -->
	<symbol id="electrokick" viewBox="0 0 16 17">
		<g>
			<path
				d="M2.69141 2.51941L3.52783 3.35583C4.76782 2.27502 6.33777 1.68469 7.99854 1.68469C8.70691 1.68469 9.39856 1.79248 10.0553 1.99939C10.0675 2.00269 10.0795 2.00647 10.0913 2.01086C10.9607 2.29016 11.7678 2.74438 12.4692 3.35583L13.3057 2.51941C11.8925 1.26392 10.0332 0.5 7.99854 0.5C5.96387 0.5 4.10461 1.26392 2.69141 2.51941Z" />
			<path
				d="M13.9806 3.19287L13.1442 4.0293C14.2251 5.26929 14.8153 6.83923 14.8153 8.5C14.8153 10.3204 14.1064 12.0319 12.8192 13.3192C11.532 14.6064 9.82043 15.3153 8 15.3153C6.17957 15.3153 4.46814 14.6064 3.18079 13.3192C1.89355 12.0319 1.18469 10.3204 1.18469 8.5C1.18469 6.83923 1.7749 5.26929 2.85583 4.0293L2.01941 3.19287C0.763916 4.60608 0 6.46533 0 8.5C0 12.9113 3.58875 16.5 8 16.5C12.4113 16.5 16 12.9113 16 8.5C16 6.46533 15.2361 4.60608 13.9806 3.19287Z" />
			<path
				d="M8.00085 2.63721C7.49878 2.63721 7.01135 2.70068 6.5459 2.81995C6.55481 3.83789 6.54297 8.19092 6.54297 8.38855C6.54297 8.96899 6.74072 9.51514 7.26782 9.82153C7.70581 10.0762 8.27917 10.0793 8.71997 9.82947C9.27783 9.51331 9.4176 8.99805 9.45044 8.43665C9.45764 8.31311 9.45874 3.65955 9.45874 2.82068C8.99255 2.70093 8.50403 2.63721 8.00085 2.63721ZM8.00085 8.97632C7.73389 8.97632 7.53625 8.75818 7.52466 8.50012C7.51318 8.24292 7.75183 8.02393 8.00085 8.02393C8.26782 8.02393 8.46545 8.24207 8.47705 8.50012C8.48853 8.75732 8.24988 8.97632 8.00085 8.97632Z" />
			<path
				d="M5.58936 3.15576C3.5553 4.07678 2.13672 6.12585 2.13672 8.50012C2.13672 11.7329 4.76672 14.363 7.99963 14.363C11.2325 14.363 13.8625 11.7329 13.8625 8.50012C13.8625 6.12585 12.444 4.07678 10.4099 3.15576V6.03113V7.96228C10.4099 8.41064 10.4374 8.87036 10.2928 9.30237C9.90955 10.4484 8.75342 11.126 7.56787 10.9298C6.42798 10.7413 5.59985 9.69751 5.58936 8.55969C5.57983 7.53308 5.58936 6.5061 5.58936 5.47961C5.58936 4.70496 5.58936 3.93042 5.58936 3.15576Z" />
		</g>
	</symbol>

	<!-- triangle svg -->
	<symbol id="triangle" viewBox="0 0 8 8">
		<g>
			<path
				d="M5.83013 0.169737C6.49679 -0.215163 7.33013 0.265961 7.33013 1.03576L7.33013 6.23191C7.33013 7.00171 6.49679 7.48284 5.83013 7.09794L1.33013 4.49986C0.663461 4.11496 0.66346 3.15271 1.33013 2.76781L5.83013 0.169737Z" />
		</g>
	</symbol>

	<!-- balance svg -->
	<symbol id="balance" viewBox="0 0 20 20">
		<g>
			<path
				d="M19.4141 11.2638H18.7766L16.7349 6.32541C17.0208 6.2865 17.2413 6.04205 17.2413 5.74549C17.2413 5.42189 16.979 5.15955 16.6554 5.15955H11.6177C11.3769 4.49076 10.7363 4.01123 9.98559 4.01123C9.23488 4.01123 8.59422 4.4908 8.3534 5.15955H3.34465C3.02105 5.15955 2.75871 5.42189 2.75871 5.74549C2.75871 6.04205 2.97926 6.2865 3.26512 6.32541L1.22344 11.2638H0.585938C0.262344 11.2638 0 11.5262 0 11.8497C0 14.1319 1.85668 15.9886 4.13883 15.9886C6.42098 15.9886 8.27766 14.1319 8.27766 11.8497C8.27766 11.5262 8.01531 11.2638 7.69172 11.2638H7.05418L5.01504 6.33143H8.3534C8.59422 7.00022 9.23484 7.47975 9.98559 7.47975C10.7363 7.47975 11.3769 7.00022 11.6177 6.33143H14.985L12.9459 11.2638H12.3083C11.9847 11.2638 11.7224 11.5262 11.7224 11.8497C11.7224 14.1319 13.5791 15.9886 15.8612 15.9886C18.1434 15.9886 20 14.1319 20 11.8497C20 11.5262 19.7377 11.2638 19.4141 11.2638ZM4.13883 14.8167C2.70332 14.8167 1.5027 13.7921 1.22996 12.4357H7.0477C6.77496 13.7921 5.57434 14.8167 4.13883 14.8167ZM5.78613 11.2638H2.49152L4.13883 7.27928L5.78613 11.2638ZM9.98555 6.30787C9.67543 6.30787 9.42316 6.05561 9.42316 5.74549C9.42316 5.43537 9.67543 5.18311 9.98555 5.18311C10.2956 5.18311 10.5479 5.43537 10.5479 5.74549C10.5479 6.05561 10.2957 6.30787 9.98555 6.30787ZM15.8612 7.27928L17.5085 11.2638H14.2139L15.8612 7.27928ZM15.8612 14.8167C14.4257 14.8167 13.225 13.7921 12.9523 12.4357H18.77C18.4973 13.7921 17.2966 14.8167 15.8612 14.8167Z" />
		</g>
	</symbol>

	<!-- favourite svg -->
	<symbol id="favourite" viewBox="0 0 20 20">
		<g>
			<path
				d="M17.9951 5.51484C17.7344 4.90528 17.3586 4.35291 16.8886 3.88864C16.4182 3.42298 15.8637 3.05293 15.2551 2.79861C14.624 2.53385 13.9471 2.39833 13.2637 2.39992C12.305 2.39992 11.3696 2.66506 10.5568 3.16588C10.3623 3.28569 10.1775 3.41727 10.0025 3.56065C9.8275 3.41727 9.64276 3.28569 9.44829 3.16588C8.63542 2.66506 7.70004 2.39992 6.74132 2.39992C6.05096 2.39992 5.382 2.53347 4.74998 2.79861C4.13935 3.05393 3.58901 3.4212 3.11646 3.88864C2.64584 4.35239 2.2699 4.90489 2.00994 5.51484C1.73963 6.14922 1.60156 6.82287 1.60156 7.51617C1.60156 8.17019 1.7338 8.8517 1.99633 9.54499C2.21608 10.1244 2.53111 10.7254 2.93366 11.3322C3.57151 12.2926 4.44855 13.2943 5.53757 14.3097C7.34222 15.9929 9.12937 17.1555 9.20521 17.2027L9.6661 17.5012C9.87029 17.6328 10.1328 17.6328 10.337 17.5012L10.7979 17.2027C10.8737 17.1536 12.6589 15.9929 14.4655 14.3097C15.5545 13.2943 16.4316 12.2926 17.0694 11.3322C17.472 10.7254 17.789 10.1244 18.0068 9.54499C18.2693 8.8517 18.4015 8.17019 18.4015 7.51617C18.4035 6.82287 18.2654 6.14922 17.9951 5.51484ZM10.0025 15.9477C10.0025 15.9477 3.07951 11.4678 3.07951 7.51617C3.07951 5.51484 4.71886 3.89257 6.74132 3.89257C8.16287 3.89257 9.39579 4.69388 10.0025 5.86443C10.6093 4.69388 11.8422 3.89257 13.2637 3.89257C15.2862 3.89257 16.9255 5.51484 16.9255 7.51617C16.9255 11.4678 10.0025 15.9477 10.0025 15.9477Z" />
		</g>
	</symbol>

	<!-- shopping-cart svg -->
	<symbol id="shopping-cart" viewBox="0 0 20 20">
		<g>
			<path
				d="M19.7031 7.22929C19.439 6.89796 19.0428 6.70788 18.616 6.70788H14.7643L12.6756 1.92534C12.5461 1.62882 12.2007 1.49331 11.9042 1.62288C11.6076 1.75238 11.4722 2.0978 11.6017 2.39437L13.4855 6.70792H6.51449L8.39828 2.39437C8.52778 2.0978 8.39239 1.75241 8.09582 1.62288C7.7993 1.49331 7.45387 1.62874 7.32438 1.92534L5.23574 6.70792H1.38403C0.957229 6.70792 0.561018 6.89796 0.296917 7.22933C0.0376587 7.55464 -0.0580054 7.97284 0.0344556 8.37683L2.09137 17.3612C2.235 17.9885 2.78996 18.4267 3.44094 18.4267H16.5591C17.21 18.4267 17.765 17.9885 17.9086 17.3612L19.9655 8.37679C20.058 7.9728 19.9623 7.5546 19.7031 7.22929ZM16.5591 17.2548H3.44094C3.34145 17.2548 3.2543 17.1895 3.23371 17.0996L1.1768 8.1153C1.16067 8.0448 1.18774 7.99175 1.21336 7.95968C1.23711 7.92984 1.2909 7.8798 1.38403 7.8798H4.72399L4.57051 8.23124C4.44102 8.5278 4.57641 8.8732 4.87297 9.00273C4.9493 9.03609 5.02883 9.05187 5.10715 9.05187C5.33301 9.05187 5.54824 8.9205 5.64442 8.7003L6.00274 7.87988H13.9973L14.3557 8.7003C14.4518 8.92054 14.6671 9.05187 14.8929 9.05187C14.9712 9.05187 15.0508 9.03609 15.1271 9.00273C15.4237 8.87323 15.5591 8.5278 15.4296 8.23124L15.2761 7.8798H18.6161C18.7092 7.8798 18.763 7.92984 18.7867 7.95968C18.8123 7.99179 18.8394 8.04484 18.8233 8.11527L16.7664 17.0996C16.7457 17.1895 16.6586 17.2548 16.5591 17.2548Z" />
			<path
				d="M6.48438 10.4189C6.16078 10.4189 5.89844 10.6813 5.89844 11.0049V15.3018C5.89844 15.6254 6.16078 15.8877 6.48438 15.8877C6.80797 15.8877 7.07031 15.6254 7.07031 15.3018V11.0049C7.07031 10.6813 6.80801 10.4189 6.48438 10.4189Z" />
			<path
				d="M6.48438 10.4189C6.16078 10.4189 5.89844 10.6813 5.89844 11.0049V15.3018C5.89844 15.6254 6.16078 15.8877 6.48438 15.8877C6.80797 15.8877 7.07031 15.6254 7.07031 15.3018V11.0049C7.07031 10.6813 6.80801 10.4189 6.48438 10.4189Z" />
			<path
				d="M10 10.4189C9.67641 10.4189 9.41406 10.6813 9.41406 11.0049V15.3018C9.41406 15.6254 9.67641 15.8877 10 15.8877C10.3236 15.8877 10.5859 15.6254 10.5859 15.3018V11.0049C10.5859 10.6813 10.3236 10.4189 10 10.4189Z" />
			<path
				d="M10 10.4189C9.67641 10.4189 9.41406 10.6813 9.41406 11.0049V15.3018C9.41406 15.6254 9.67641 15.8877 10 15.8877C10.3236 15.8877 10.5859 15.6254 10.5859 15.3018V11.0049C10.5859 10.6813 10.3236 10.4189 10 10.4189Z" />
			<path
				d="M13.5156 10.4189C13.192 10.4189 12.9297 10.6813 12.9297 11.0049V15.3018C12.9297 15.6254 13.192 15.8877 13.5156 15.8877C13.8392 15.8877 14.1016 15.6254 14.1016 15.3018V11.0049C14.1015 10.6813 13.8392 10.4189 13.5156 10.4189Z" />
			<path
				d="M13.5156 10.4189C13.192 10.4189 12.9297 10.6813 12.9297 11.0049V15.3018C12.9297 15.6254 13.192 15.8877 13.5156 15.8877C13.8392 15.8877 14.1016 15.6254 14.1016 15.3018V11.0049C14.1015 10.6813 13.8392 10.4189 13.5156 10.4189Z" />
		</g>
	</symbol>

	<!-- delete svg -->
	<symbol id="delete" viewBox="0 0 16 16">
		<g>
			<path
				d="M5.03125 1.59375H4.875C4.96094 1.59375 5.03125 1.52344 5.03125 1.4375V1.59375H10.9688V1.4375C10.9688 1.52344 11.0391 1.59375 11.125 1.59375H10.9688V3H12.375V1.4375C12.375 0.748047 11.8145 0.1875 11.125 0.1875H4.875C4.18555 0.1875 3.625 0.748047 3.625 1.4375V3H5.03125V1.59375ZM14.875 3H1.125C0.779297 3 0.5 3.2793 0.5 3.625V4.25C0.5 4.33594 0.570312 4.40625 0.65625 4.40625H1.83594L2.31836 14.6211C2.34961 15.2871 2.90039 15.8125 3.56641 15.8125H12.4336C13.1016 15.8125 13.6504 15.2891 13.6816 14.6211L14.1641 4.40625H15.3438C15.4297 4.40625 15.5 4.33594 15.5 4.25V3.625C15.5 3.2793 15.2207 3 14.875 3ZM12.2832 14.4062H3.7168L3.24414 4.40625H12.7559L12.2832 14.4062Z" />
		</g>
	</symbol>

	<!-- phone svg -->
	<symbol id="phone" viewBox="0 0 16 16">
		<g>
			<path
				d="M14.7162 10.5022C13.7366 10.5022 12.7747 10.349 11.8633 10.0478C11.4167 9.89542 10.8676 10.0352 10.595 10.3151L8.796 11.6732C6.70963 10.5595 5.42446 9.27475 4.32596 7.20404L5.64408 5.45188C5.98654 5.10988 6.10938 4.61029 5.96221 4.14154C5.65971 3.22529 5.50604 2.26392 5.50604 1.28392C5.50608 0.575958 4.93013 0 4.22221 0H1.28387C0.575958 0 0 0.575958 0 1.28387C0 9.39846 6.60158 16 14.7162 16C15.4241 16 16 15.424 16 14.7161V11.786C16 11.0781 15.424 10.5022 14.7162 10.5022Z" />
		</g>
	</symbol>

	<!-- logo svg -->
	<symbol id="logo" viewBox="0 0 113 23">
		<g>
			<path d="M0.22 0.999999V22H5.47V0.999999H0.22ZM12.61 0.999999L4 10.99L12.85 22H19L10.03 10.84L18.55 0.999999H12.61ZM21.0466 0.999999V15.1C21.0466 16.42 21.2566 17.57 21.6766 18.55C22.1166 19.53 22.7166 20.34 23.4766 20.98C24.2566 21.6 25.1566 22.07 26.1766 22.39C27.1966 22.71 28.2966 22.87 29.4766 22.87C30.6566 22.87 31.7566 22.71 32.7766 22.39C33.8166 22.07 34.7166 21.6 35.4766 20.98C36.2566 20.34 36.8566 19.53 37.2766 18.55C37.7166 17.57 37.9366 16.42 37.9366 15.1V0.999999H32.8666V14.74C32.8666 15.8 32.5866 16.66 32.0266 17.32C31.4666 17.98 30.6166 18.31 29.4766 18.31C28.3566 18.31 27.5166 17.98 26.9566 17.32C26.3966 16.66 26.1166 15.8 26.1166 14.74V0.999999H21.0466ZM52.6417 14.41H58.2217C58.0417 14.95 57.7917 15.46 57.4717 15.94C57.1717 16.4 56.7917 16.81 56.3317 17.17C55.8917 17.51 55.3617 17.78 54.7417 17.98C54.1417 18.16 53.4617 18.25 52.7017 18.25C51.4617 18.25 50.3617 17.98 49.4017 17.44C48.4617 16.88 47.7117 16.1 47.1517 15.1C46.6117 14.08 46.3417 12.88 46.3417 11.5C46.3417 10.1 46.6217 8.92 47.1817 7.96C47.7617 6.98 48.5317 6.23 49.4917 5.71C50.4517 5.19 51.5217 4.93 52.7017 4.93C53.9217 4.93 54.9317 5.21 55.7317 5.77C56.5517 6.31 57.2017 7 57.6817 7.84L62.1817 5.5C61.5217 4.52 60.7317 3.66 59.8117 2.92C58.9117 2.16 57.8717 1.57 56.6917 1.15C55.5117 0.729999 54.1817 0.519999 52.7017 0.519999C51.0417 0.519999 49.5017 0.779999 48.0817 1.3C46.6617 1.82 45.4217 2.56 44.3617 3.52C43.3017 4.48 42.4817 5.64 41.9017 7C41.3217 8.34 41.0317 9.84 41.0317 11.5C41.0317 13.16 41.3117 14.68 41.8717 16.06C42.4517 17.42 43.2517 18.6 44.2717 19.6C45.2917 20.58 46.5017 21.34 47.9017 21.88C49.3017 22.4 50.8417 22.66 52.5217 22.66C54.3017 22.66 55.8817 22.35 57.2617 21.73C58.6417 21.09 59.7917 20.21 60.7117 19.09C61.6317 17.97 62.3117 16.68 62.7517 15.22C63.1917 13.76 63.3617 12.19 63.2617 10.51H52.6417V14.41ZM70.8353 11.5C70.8353 10.26 71.0753 9.17 71.5553 8.23C72.0553 7.27 72.7453 6.52 73.6253 5.98C74.5253 5.44 75.5753 5.17 76.7753 5.17C77.9953 5.17 79.0453 5.44 79.9253 5.98C80.8053 6.52 81.4853 7.27 81.9653 8.23C82.4453 9.17 82.6853 10.26 82.6853 11.5C82.6853 12.74 82.4353 13.84 81.9353 14.8C81.4553 15.74 80.7653 16.48 79.8653 17.02C78.9853 17.56 77.9553 17.83 76.7753 17.83C75.5753 17.83 74.5253 17.56 73.6253 17.02C72.7453 16.48 72.0553 15.74 71.5553 14.8C71.0753 13.84 70.8353 12.74 70.8353 11.5ZM65.4653 11.5C65.4653 13.12 65.7353 14.61 66.2753 15.97C66.8353 17.33 67.6153 18.51 68.6153 19.51C69.6353 20.51 70.8353 21.29 72.2153 21.85C73.5953 22.39 75.1153 22.66 76.7753 22.66C78.4153 22.66 79.9253 22.39 81.3053 21.85C82.6853 21.29 83.8753 20.51 84.8753 19.51C85.8953 18.51 86.6753 17.33 87.2153 15.97C87.7753 14.61 88.0553 13.12 88.0553 11.5C88.0553 9.88 87.7753 8.4 87.2153 7.06C86.6553 5.72 85.8653 4.56 84.8453 3.58C83.8253 2.6 82.6253 1.85 81.2453 1.33C79.8853 0.789999 78.3953 0.519999 76.7753 0.519999C75.1753 0.519999 73.6853 0.789999 72.3053 1.33C70.9253 1.85 69.7253 2.6 68.7053 3.58C67.6853 4.56 66.8853 5.72 66.3053 7.06C65.7453 8.4 65.4653 9.88 65.4653 11.5ZM95.474 11.5C95.474 10.26 95.714 9.17 96.194 8.23C96.694 7.27 97.384 6.52 98.264 5.98C99.164 5.44 100.214 5.17 101.414 5.17C102.634 5.17 103.684 5.44 104.564 5.98C105.444 6.52 106.124 7.27 106.604 8.23C107.084 9.17 107.324 10.26 107.324 11.5C107.324 12.74 107.074 13.84 106.574 14.8C106.094 15.74 105.404 16.48 104.504 17.02C103.624 17.56 102.594 17.83 101.414 17.83C100.214 17.83 99.164 17.56 98.264 17.02C97.384 16.48 96.694 15.74 96.194 14.8C95.714 13.84 95.474 12.74 95.474 11.5ZM90.104 11.5C90.104 13.12 90.374 14.61 90.914 15.97C91.474 17.33 92.254 18.51 93.254 19.51C94.274 20.51 95.474 21.29 96.854 21.85C98.234 22.39 99.754 22.66 101.414 22.66C103.054 22.66 104.564 22.39 105.944 21.85C107.324 21.29 108.514 20.51 109.514 19.51C110.534 18.51 111.314 17.33 111.854 15.97C112.414 14.61 112.694 13.12 112.694 11.5C112.694 9.88 112.414 8.4 111.854 7.06C111.294 5.72 110.504 4.56 109.484 3.58C108.464 2.6 107.264 1.85 105.884 1.33C104.524 0.789999 103.034 0.519999 101.414 0.519999C99.814 0.519999 98.324 0.789999 96.944 1.33C95.564 1.85 94.364 2.6 93.344 3.58C92.324 4.56 91.524 5.72 90.944 7.06C90.384 8.4 90.104 9.88 90.104 11.5Z" />
		</g>
	</symbol>

	<!-- balance svg -->
	<symbol id="balance" viewBox="0 0 20 20">
		<g>
			<path
				d="M19.4141 11.2638H18.7766L16.7349 6.32541C17.0208 6.2865 17.2413 6.04205 17.2413 5.74549C17.2413 5.42189 16.979 5.15955 16.6554 5.15955H11.6177C11.3769 4.49076 10.7363 4.01123 9.98559 4.01123C9.23488 4.01123 8.59422 4.4908 8.3534 5.15955H3.34465C3.02105 5.15955 2.75871 5.42189 2.75871 5.74549C2.75871 6.04205 2.97926 6.2865 3.26512 6.32541L1.22344 11.2638H0.585938C0.262344 11.2638 0 11.5262 0 11.8497C0 14.1319 1.85668 15.9886 4.13883 15.9886C6.42098 15.9886 8.27766 14.1319 8.27766 11.8497C8.27766 11.5262 8.01531 11.2638 7.69172 11.2638H7.05418L5.01504 6.33143H8.3534C8.59422 7.00022 9.23484 7.47975 9.98559 7.47975C10.7363 7.47975 11.3769 7.00022 11.6177 6.33143H14.985L12.9459 11.2638H12.3083C11.9847 11.2638 11.7224 11.5262 11.7224 11.8497C11.7224 14.1319 13.5791 15.9886 15.8612 15.9886C18.1434 15.9886 20 14.1319 20 11.8497C20 11.5262 19.7377 11.2638 19.4141 11.2638ZM4.13883 14.8167C2.70332 14.8167 1.5027 13.7921 1.22996 12.4357H7.0477C6.77496 13.7921 5.57434 14.8167 4.13883 14.8167ZM5.78613 11.2638H2.49152L4.13883 7.27928L5.78613 11.2638ZM9.98555 6.30787C9.67543 6.30787 9.42316 6.05561 9.42316 5.74549C9.42316 5.43537 9.67543 5.18311 9.98555 5.18311C10.2956 5.18311 10.5479 5.43537 10.5479 5.74549C10.5479 6.05561 10.2957 6.30787 9.98555 6.30787ZM15.8612 7.27928L17.5085 11.2638H14.2139L15.8612 7.27928ZM15.8612 14.8167C14.4257 14.8167 13.225 13.7921 12.9523 12.4357H18.77C18.4973 13.7921 17.2966 14.8167 15.8612 14.8167Z" />
		</g>
	</symbol>

	<!-- favourite -->
	<symbol id="favourite" viewBox="0 0 20 20">
		<g>
			<path
				d="M17.9951 5.51484C17.7344 4.90528 17.3586 4.35291 16.8886 3.88864C16.4182 3.42298 15.8637 3.05293 15.2551 2.79861C14.624 2.53385 13.9471 2.39833 13.2637 2.39992C12.305 2.39992 11.3696 2.66506 10.5568 3.16588C10.3623 3.28569 10.1775 3.41727 10.0025 3.56065C9.8275 3.41727 9.64276 3.28569 9.44829 3.16588C8.63542 2.66506 7.70004 2.39992 6.74132 2.39992C6.05096 2.39992 5.382 2.53347 4.74998 2.79861C4.13935 3.05393 3.58901 3.4212 3.11646 3.88864C2.64584 4.35239 2.2699 4.90489 2.00994 5.51484C1.73963 6.14922 1.60156 6.82287 1.60156 7.51617C1.60156 8.17019 1.7338 8.8517 1.99633 9.54499C2.21608 10.1244 2.53111 10.7254 2.93366 11.3322C3.57151 12.2926 4.44855 13.2943 5.53757 14.3097C7.34222 15.9929 9.12937 17.1555 9.20521 17.2027L9.6661 17.5012C9.87029 17.6328 10.1328 17.6328 10.337 17.5012L10.7979 17.2027C10.8737 17.1536 12.6589 15.9929 14.4655 14.3097C15.5545 13.2943 16.4316 12.2926 17.0694 11.3322C17.472 10.7254 17.789 10.1244 18.0068 9.54499C18.2693 8.8517 18.4015 8.17019 18.4015 7.51617C18.4035 6.82287 18.2654 6.14922 17.9951 5.51484ZM10.0025 15.9477C10.0025 15.9477 3.07951 11.4678 3.07951 7.51617C3.07951 5.51484 4.71886 3.89257 6.74132 3.89257C8.16287 3.89257 9.39579 4.69388 10.0025 5.86443C10.6093 4.69388 11.8422 3.89257 13.2637 3.89257C15.2862 3.89257 16.9255 5.51484 16.9255 7.51617C16.9255 11.4678 10.0025 15.9477 10.0025 15.9477Z" />
		</g>
	</symbol>

<!-- shopping-cart -->
	<symbol id="shopping-cart" viewBox="0 0 20 20">
		<g>
			<path
				d="M19.7031 7.22929C19.439 6.89796 19.0428 6.70788 18.616 6.70788H14.7643L12.6756 1.92534C12.5461 1.62882 12.2007 1.49331 11.9042 1.62288C11.6076 1.75238 11.4722 2.0978 11.6017 2.39437L13.4855 6.70792H6.51449L8.39828 2.39437C8.52778 2.0978 8.39239 1.75241 8.09582 1.62288C7.7993 1.49331 7.45387 1.62874 7.32438 1.92534L5.23574 6.70792H1.38403C0.957229 6.70792 0.561018 6.89796 0.296917 7.22933C0.0376587 7.55464 -0.0580054 7.97284 0.0344556 8.37683L2.09137 17.3612C2.235 17.9885 2.78996 18.4267 3.44094 18.4267H16.5591C17.21 18.4267 17.765 17.9885 17.9086 17.3612L19.9655 8.37679C20.058 7.9728 19.9623 7.5546 19.7031 7.22929ZM16.5591 17.2548H3.44094C3.34145 17.2548 3.2543 17.1895 3.23371 17.0996L1.1768 8.1153C1.16067 8.0448 1.18774 7.99175 1.21336 7.95968C1.23711 7.92984 1.2909 7.8798 1.38403 7.8798H4.72399L4.57051 8.23124C4.44102 8.5278 4.57641 8.8732 4.87297 9.00273C4.9493 9.03609 5.02883 9.05187 5.10715 9.05187C5.33301 9.05187 5.54824 8.9205 5.64442 8.7003L6.00274 7.87988H13.9973L14.3557 8.7003C14.4518 8.92054 14.6671 9.05187 14.8929 9.05187C14.9712 9.05187 15.0508 9.03609 15.1271 9.00273C15.4237 8.87323 15.5591 8.5278 15.4296 8.23124L15.2761 7.8798H18.6161C18.7092 7.8798 18.763 7.92984 18.7867 7.95968C18.8123 7.99179 18.8394 8.04484 18.8233 8.11527L16.7664 17.0996C16.7457 17.1895 16.6586 17.2548 16.5591 17.2548Z" />
			<path
				d="M6.48438 10.4189C6.16078 10.4189 5.89844 10.6813 5.89844 11.0049V15.3018C5.89844 15.6254 6.16078 15.8877 6.48438 15.8877C6.80797 15.8877 7.07031 15.6254 7.07031 15.3018V11.0049C7.07031 10.6813 6.80801 10.4189 6.48438 10.4189Z" />
			<path
				d="M6.48438 10.4189C6.16078 10.4189 5.89844 10.6813 5.89844 11.0049V15.3018C5.89844 15.6254 6.16078 15.8877 6.48438 15.8877C6.80797 15.8877 7.07031 15.6254 7.07031 15.3018V11.0049C7.07031 10.6813 6.80801 10.4189 6.48438 10.4189Z" />
			<path
				d="M10 10.4189C9.67641 10.4189 9.41406 10.6813 9.41406 11.0049V15.3018C9.41406 15.6254 9.67641 15.8877 10 15.8877C10.3236 15.8877 10.5859 15.6254 10.5859 15.3018V11.0049C10.5859 10.6813 10.3236 10.4189 10 10.4189Z" />
			<path
				d="M10 10.4189C9.67641 10.4189 9.41406 10.6813 9.41406 11.0049V15.3018C9.41406 15.6254 9.67641 15.8877 10 15.8877C10.3236 15.8877 10.5859 15.6254 10.5859 15.3018V11.0049C10.5859 10.6813 10.3236 10.4189 10 10.4189Z" />
			<path
				d="M13.5156 10.4189C13.192 10.4189 12.9297 10.6813 12.9297 11.0049V15.3018C12.9297 15.6254 13.192 15.8877 13.5156 15.8877C13.8392 15.8877 14.1016 15.6254 14.1016 15.3018V11.0049C14.1015 10.6813 13.8392 10.4189 13.5156 10.4189Z" />
			<path
				d="M13.5156 10.4189C13.192 10.4189 12.9297 10.6813 12.9297 11.0049V15.3018C12.9297 15.6254 13.192 15.8877 13.5156 15.8877C13.8392 15.8877 14.1016 15.6254 14.1016 15.3018V11.0049C14.1015 10.6813 13.8392 10.4189 13.5156 10.4189Z" />
		</g>
	</symbol>


	<symbol id="triangle" viewBox="0 0 8 8">
		<g>
			<path
				d="M5.83013 0.169737C6.49679 -0.215163 7.33013 0.265961 7.33013 1.03576L7.33013 6.23191C7.33013 7.00171 6.49679 7.48284 5.83013 7.09794L1.33013 4.49986C0.663461 4.11496 0.66346 3.15271 1.33013 2.76781L5.83013 0.169737Z" />
		</g>
	</symbol>

<!-- shop-card -->
	<symbol id="shop-cart" viewBox="0 0 25 25">
		<g>
			<path
				d="M23.9404 9.0679H18.7539L15.8446 2.40613C15.6827 2.03548 15.251 1.86609 14.8803 2.02805C14.5095 2.18992 14.3403 2.62171 14.5022 2.99241L17.1555 9.06795H7.84456L10.4979 2.99241C10.6597 2.62171 10.4905 2.18997 10.1198 2.02805C9.74915 1.86609 9.31731 2.03538 9.15549 2.40613L6.24612 9.0679H1.05964C0.381177 9.0679 -0.122338 9.68211 0.0260991 10.3286L2.7573 22.2246C2.86575 22.697 3.29514 23.0327 3.79085 23.0327H21.2092C21.7049 23.0327 22.1343 22.697 22.2428 22.2246L24.974 10.3286C25.1224 9.68216 24.6188 9.0679 23.9404 9.0679V9.0679ZM6.38391 11.3142C6.28606 11.3142 6.1866 11.2945 6.09114 11.2528C5.72044 11.0909 5.55115 10.6592 5.71306 10.2884L6.26326 9.02854H7.86169L7.05544 10.8746C6.93528 11.15 6.66624 11.3142 6.38391 11.3142ZM8.83792 19.1265C8.83792 19.531 8.50999 19.8589 8.10549 19.8589C7.701 19.8589 7.37307 19.531 7.37307 19.1265V13.7554C7.37307 13.3509 7.701 13.023 8.10549 13.023C8.50999 13.023 8.83792 13.3509 8.83792 13.7554V19.1265ZM13.2324 19.1265C13.2324 19.531 12.9045 19.8589 12.5 19.8589C12.0955 19.8589 11.7676 19.531 11.7676 19.1265V13.7554C11.7676 13.3509 12.0955 13.023 12.5 13.023C12.9045 13.023 13.2324 13.3509 13.2324 13.7554V19.1265ZM17.627 19.1265C17.627 19.531 17.299 19.8589 16.8946 19.8589C16.4901 19.8589 16.1621 19.531 16.1621 19.1265V13.7554C16.1621 13.3509 16.4901 13.023 16.8946 13.023C17.299 13.023 17.627 13.3509 17.627 13.7554V19.1265ZM18.9089 11.2528C18.8135 11.2945 18.714 11.3142 18.6161 11.3142C18.3338 11.3142 18.0648 11.15 17.9446 10.8747L17.1383 9.02859H18.7367L19.2869 10.2885C19.4489 10.6592 19.2796 11.0909 18.9089 11.2528Z"
				fill="#6f73ee" />
		</g>
	</symbol>

	<symbol id="billford" viewBox="0 0 25 25">
		<g>
			<path
				d="M20.3125 16.6667C17.7281 16.6667 15.625 14.5635 15.625 11.9792C15.625 9.39479 17.7281 7.29167 20.3125 7.29167H22.9167V5.98958C22.9167 4.40937 21.6323 3.125 20.0521 3.125H2.86458C1.28438 3.125 0 4.40937 0 5.98958V19.0104C0 20.5906 1.28438 21.875 2.86458 21.875H20.0521C21.6323 21.875 22.9167 20.5906 22.9167 19.0104V16.6667H20.3125Z"
				fill="#6F73EE" />
			<path
				d="M24.2187 8.85419H20.3125C18.5896 8.85419 17.1875 10.2563 17.1875 11.9792C17.1875 13.7021 18.5896 15.1042 20.3125 15.1042H24.2187C24.65 15.1042 25 14.7542 25 14.3229V9.63544C25 9.20419 24.65 8.85419 24.2187 8.85419ZM20.3125 13.0209C19.7375 13.0209 19.2708 12.5542 19.2708 11.9792C19.2708 11.4042 19.7375 10.9375 20.3125 10.9375C20.8875 10.9375 21.3542 11.4042 21.3542 11.9792C21.3542 12.5542 20.8875 13.0209 20.3125 13.0209Z"
				fill="#6F73EE" />

		</g>
	</symbol>

	<symbol id="delivery" viewBox="0 0 25 25">
		<g>
			<path fill-rule="evenodd" clip-rule="evenodd"
				d="M18.4024 6.49967V0.732231C18.4024 0.327873 18.0746 0 17.6702 0H12.7254V5.56831C12.7254 6.09436 12.1645 6.49948 11.6159 6.19602L9.22466 4.98524L6.78516 6.22044C6.29363 6.46877 5.72524 6.10085 5.72562 5.56831L5.72429 0H0.779106C0.374748 0 0.046875 0.327873 0.046875 0.732231V17.6233C0.046875 18.0277 0.374748 18.3556 0.779106 18.3556H10.3273C9.87983 17.1701 9.60994 15.9914 9.60994 14.9408C9.60994 10.1448 13.5986 6.30722 18.4024 6.49967Z"
				fill="#6F73EE" />
			<path fill-rule="evenodd" clip-rule="evenodd"
				d="M9.55261 3.51429L11.2597 4.3787V0H7.1875V4.3787L8.89343 3.51505C9.09332 3.41377 9.33708 3.40576 9.55261 3.51429Z"
				fill="#6F73EE" />
			<path fill-rule="evenodd" clip-rule="evenodd"
				d="M18.0578 7.95728C14.2011 7.95728 11.0742 11.0842 11.0742 14.9408C11.0742 16.7837 12.1175 19.2148 13.4485 21.2006C14.8786 23.3343 16.7093 25 18.0578 25C19.4063 25 21.237 23.3343 22.6671 21.2006C23.998 19.2148 25.0414 16.7837 25.0414 14.9408C25.0415 11.0842 21.9146 7.95728 18.0578 7.95728ZM18.0578 17.6287C16.5737 17.6287 15.3701 16.4251 15.3701 14.9408C15.3701 13.4567 16.5737 12.2534 18.0578 12.2534C19.5419 12.2534 20.7454 13.4567 20.7454 14.9408C20.7454 16.4251 19.5421 17.6287 18.0578 17.6287Z"
				fill="#6F73EE" />
			<path fill-rule="evenodd" clip-rule="evenodd"
				d="M19.2821 14.9408C19.2821 15.6164 18.7345 16.164 18.0589 16.164C17.3835 16.164 16.8359 15.6164 16.8359 14.9408C16.8359 14.2654 17.3835 13.7178 18.0589 13.7178C18.7345 13.7178 19.2821 14.2654 19.2821 14.9408Z"
				fill="#6F73EE" />
		</g>
	</symbol>

	<symbol id="percentage-discount" viewBox="0 0 25 25">
		<g>
			<path
				d="M10.8546 9.70644C11.819 8.66043 12.3503 7.25734 12.3503 5.75522C12.3503 2.89523 10.3075 0 6.40246 0C4.58512 0 3.05198 0.624205 1.96855 1.80509C1.00885 2.85126 0.480469 4.25404 0.480469 5.75522C0.480469 8.61552 2.51463 11.5106 6.40246 11.5106C8.22658 11.5107 9.76643 10.8869 10.8546 9.70644ZM6.40246 2.67599C8.54211 2.67599 9.51655 4.27322 9.51655 5.75725C9.51655 6.56452 9.24491 7.31183 8.75122 7.86127C8.20046 8.47495 7.40005 8.79945 6.43716 8.79945C4.2434 8.79945 3.24401 7.20237 3.24401 5.7185C3.24401 4.2043 4.22078 2.67599 6.40246 2.67599Z"
				fill="#6F73EE" />
			<path
				d="M20.6066 2.22015C20.2527 2.22655 19.7695 2.44719 19.5328 2.71033L1.96559 22.242C1.72896 22.5053 1.89659 22.8744 2.25048 22.8744H4.54973C4.90362 22.8744 5.38632 22.6586 5.62256 22.3951L23.0812 2.86736C23.3174 2.6036 23.3017 2.17447 22.7169 2.17462L20.6066 2.22015Z"
				fill="#6F73EE" />
			<path
				d="M18.6843 13.7083C16.902 13.7083 15.3979 14.321 14.335 15.4793C13.3936 16.5052 12.875 17.8816 12.875 19.3542C12.875 22.1598 14.8705 25 18.6843 25C20.4742 25 21.9844 24.3879 23.052 23.2301C23.9982 22.2039 24.5192 20.8274 24.5192 19.3542C24.5192 16.5487 22.515 13.7083 18.6843 13.7083ZM18.7187 22.4091C16.5844 22.4091 15.6119 20.8064 15.6119 19.3179C15.6119 18.5073 15.8834 17.7571 16.3767 17.2056C16.9266 16.5901 17.7245 16.2649 18.6843 16.2649C20.8188 16.2649 21.7909 17.8673 21.7909 19.3563C21.7909 20.1667 21.5193 20.917 21.0264 21.4685C20.4763 22.0839 19.6783 22.4091 18.7187 22.4091Z"
				fill="#6F73EE" />
		</g>
	</symbol>

	<symbol id="billford" viewBox="0 0 25 25">
		<g>
			<path
				d="M20.3125 16.6667C17.7281 16.6667 15.625 14.5635 15.625 11.9792C15.625 9.39479 17.7281 7.29167 20.3125 7.29167H22.9167V5.98958C22.9167 4.40937 21.6323 3.125 20.0521 3.125H2.86458C1.28438 3.125 0 4.40937 0 5.98958V19.0104C0 20.5906 1.28438 21.875 2.86458 21.875H20.0521C21.6323 21.875 22.9167 20.5906 22.9167 19.0104V16.6667H20.3125Z"/>
			<path
				d="M24.2187 8.85419H20.3125C18.5896 8.85419 17.1875 10.2563 17.1875 11.9792C17.1875 13.7021 18.5896 15.1042 20.3125 15.1042H24.2187C24.65 15.1042 25 14.7542 25 14.3229V9.63544C25 9.20419 24.65 8.85419 24.2187 8.85419ZM20.3125 13.0209C19.7375 13.0209 19.2708 12.5542 19.2708 11.9792C19.2708 11.4042 19.7375 10.9375 20.3125 10.9375C20.8875 10.9375 21.3542 11.4042 21.3542 11.9792C21.3542 12.5542 20.8875 13.0209 20.3125 13.0209Z"/>
		</g>
	</symbol>

	<symbol id="scales" viewBox="0 0 16 17">
		<g>
			<path d="M13.5229 0.5H2.47709C1.11122 0.5 0 1.61122 0 2.97709V14.0229C0 15.3888 1.11122 16.5 2.47709 16.5H13.5229C14.8888 16.5 16 15.3888 16 14.0229V2.97709C16 1.61122 14.8888 0.5 13.5229 0.5ZM12.2359 4.92691L10.4613 6.70172C10.2782 6.88481 9.98153 6.88472 9.79847 6.70181C9.31747 6.221 8.67878 5.95625 8 5.95625C7.32122 5.95625 6.68253 6.22103 6.20153 6.70181C6.01844 6.88475 5.72172 6.88475 5.53866 6.70172L3.76406 4.92691C3.58103 4.74384 3.58106 4.44706 3.76409 4.264C4.89622 3.13184 6.40056 2.50834 8 2.50834C9.59944 2.50834 11.1038 3.13184 12.2359 4.26403C12.4189 4.44706 12.419 4.74384 12.2359 4.92691Z" />
		</g>
	</symbol>

	<!-- home -->
	<symbol id="home" viewBox="0 0 18 18">
		<g>
			<path d="M17.4884 8.86431L9.94149 1.32134L9.43563 0.815479C9.32037 0.70098 9.1645 0.636719 9.00203 0.636719C8.83957 0.636719 8.6837 0.70098 8.56844 0.815479L0.515706 8.86431C0.397603 8.98195 0.304264 9.12206 0.241198 9.27637C0.178133 9.43068 0.14662 9.59606 0.148518 9.76274C0.156331 10.4502 0.728597 10.9991 1.4161 10.9991H2.24617V17.3604H15.7579V10.9991H16.6055C16.9395 10.9991 17.254 10.8682 17.4903 10.6319C17.6067 10.5159 17.6989 10.378 17.7616 10.2261C17.8243 10.0742 17.8562 9.91142 17.8555 9.74712C17.8555 9.41509 17.7247 9.10063 17.4884 8.86431ZM10.0958 15.9542H7.90828V11.9698H10.0958V15.9542ZM14.3516 9.59282V15.9542H11.3458V11.501C11.3458 11.0694 10.9962 10.7198 10.5645 10.7198H7.43953C7.00789 10.7198 6.65828 11.0694 6.65828 11.501V15.9542H3.65242V9.59282H1.77742L9.00399 2.37212L9.45516 2.82329L16.2286 9.59282H14.3516Z" fill="#5D6C7B"/>
		</g>
	</symbol>

	<!-- lupa -->
	<symbol id="lupa" viewBox="0 0 18 18">
		<g>
			<path d="M8.11556 0.609375C3.9833 0.609375 0.617188 3.97548 0.617188 8.10776C0.617188 12.24 3.9833 15.6127 8.11556 15.6127C9.88058 15.6127 11.5038 14.9941 12.7868 13.9671L15.9102 17.0889C16.0678 17.24 16.2783 17.3233 16.4966 17.3211C16.715 17.3189 16.9237 17.2312 17.0782 17.0769C17.2327 16.9227 17.3207 16.714 17.3232 16.4957C17.3257 16.2774 17.2427 16.0667 17.0918 15.9089L13.9684 12.7856C14.9963 11.5006 15.6156 9.87481 15.6156 8.10776C15.6156 3.97548 12.2478 0.609375 8.11556 0.609375ZM8.11556 2.27607C11.3471 2.27607 13.9473 4.87623 13.9473 8.10776C13.9473 11.3393 11.3471 13.946 8.11556 13.946C4.88403 13.946 2.28385 11.3393 2.28385 8.10776C2.28385 4.87623 4.88403 2.27607 8.11556 2.27607Z" />
		</g>
	</symbol>

	<!-- calender -->
	<symbol id="calendar" viewBox="0 0 18 18">
		<g>
			<path d="M17 6.28125C17 5.23719 17 4.50678 17 4.4375C17 3.66209 16.3692 3.03125 15.5938 3.03125H15.4062V4.75C15.4062 5.00888 15.1964 5.21875 14.9375 5.21875C14.6786 5.21875 14.4688 5.00888 14.4688 4.75C14.4688 4.22378 14.4688 2.774 14.4688 2.25C14.4688 1.99112 14.2589 1.78125 14 1.78125C13.7411 1.78125 13.5312 1.99112 13.5312 2.25V3.03125H10.4062V4.75C10.4062 5.00888 10.1964 5.21875 9.9375 5.21875C9.67862 5.21875 9.46875 5.00888 9.46875 4.75C9.46875 4.22378 9.46875 2.774 9.46875 2.25C9.46875 1.99112 9.25888 1.78125 9 1.78125C8.74112 1.78125 8.53125 1.99112 8.53125 2.25V3.03125H5.40625V4.75C5.40625 5.00888 5.19638 5.21875 4.9375 5.21875C4.67862 5.21875 4.46875 5.00888 4.46875 4.75C4.46875 4.22378 4.46875 2.774 4.46875 2.25C4.46875 1.99112 4.25888 1.78125 4 1.78125C3.74112 1.78125 3.53125 1.99112 3.53125 2.25V3.03125H2.40625C1.63084 3.03125 1 3.66209 1 4.4375V6.28125H17Z" />
			<path d="M1 7.21875V14.8125C1 15.5879 1.63084 16.2188 2.40625 16.2188H15.5938C16.3692 16.2188 17 15.5879 17 14.8125C17 14.6117 17 10.2246 17 7.21875C16.7083 7.21875 1.16138 7.21875 1 7.21875ZM5.5 13.7188H4.5C4.24112 13.7188 4.03125 13.5089 4.03125 13.25C4.03125 12.9911 4.24112 12.7812 4.5 12.7812H5.5C5.75888 12.7812 5.96875 12.9911 5.96875 13.25C5.96875 13.5089 5.75888 13.7188 5.5 13.7188ZM5.5 11.7188H4.5C4.24112 11.7188 4.03125 11.5089 4.03125 11.25C4.03125 10.9911 4.24112 10.7812 4.5 10.7812H5.5C5.75888 10.7812 5.96875 10.9911 5.96875 11.25C5.96875 11.5089 5.75888 11.7188 5.5 11.7188ZM5.5 9.71875H4.5C4.24112 9.71875 4.03125 9.50888 4.03125 9.25C4.03125 8.99112 4.24112 8.78125 4.5 8.78125H5.5C5.75888 8.78125 5.96875 8.99112 5.96875 9.25C5.96875 9.50888 5.75888 9.71875 5.5 9.71875ZM9.5 13.7188H8.5C8.24112 13.7188 8.03125 13.5089 8.03125 13.25C8.03125 12.9911 8.24112 12.7812 8.5 12.7812H9.5C9.75888 12.7812 9.96875 12.9911 9.96875 13.25C9.96875 13.5089 9.75888 13.7188 9.5 13.7188ZM9.5 11.7188H8.5C8.24112 11.7188 8.03125 11.5089 8.03125 11.25C8.03125 10.9911 8.24112 10.7812 8.5 10.7812H9.5C9.75888 10.7812 9.96875 10.9911 9.96875 11.25C9.96875 11.5089 9.75888 11.7188 9.5 11.7188ZM9.5 9.71875H8.5C8.24112 9.71875 8.03125 9.50888 8.03125 9.25C8.03125 8.99112 8.24112 8.78125 8.5 8.78125H9.5C9.75888 8.78125 9.96875 8.99112 9.96875 9.25C9.96875 9.50888 9.75888 9.71875 9.5 9.71875ZM13.5 13.7188H12.5C12.2411 13.7188 12.0312 13.5089 12.0312 13.25C12.0312 12.9911 12.2411 12.7812 12.5 12.7812H13.5C13.7589 12.7812 13.9688 12.9911 13.9688 13.25C13.9688 13.5089 13.7589 13.7188 13.5 13.7188ZM13.5 11.7188H12.5C12.2411 11.7188 12.0312 11.5089 12.0312 11.25C12.0312 10.9911 12.2411 10.7812 12.5 10.7812H13.5C13.7589 10.7812 13.9688 10.9911 13.9688 11.25C13.9688 11.5089 13.7589 11.7188 13.5 11.7188ZM13.5 9.71875H12.5C12.2411 9.71875 12.0312 9.50888 12.0312 9.25C12.0312 8.99112 12.2411 8.78125 12.5 8.78125H13.5C13.7589 8.78125 13.9688 8.99112 13.9688 9.25C13.9688 9.50888 13.7589 9.71875 13.5 9.71875Z" />
		</g>
	</symbol>

	<!-- eye -->
	<symbol id="eye" viewBox="0 0 18 18">
		<g>
			<path d="M9 10.125C9.62132 10.125 10.125 9.62132 10.125 9C10.125 8.37868 9.62132 7.875 9 7.875C8.37868 7.875 7.875 8.37868 7.875 9C7.875 9.62132 8.37868 10.125 9 10.125Z" fill="#5D6C7B"/>
			<path d="M16.4016 8.62503C15.9216 7.79253 13.2816 3.61503 8.79657 3.75003C4.64907 3.85503 2.24907 7.50003 1.59657 8.62503C1.53075 8.73904 1.49609 8.86837 1.49609 9.00003C1.49609 9.13168 1.53075 9.26101 1.59657 9.37503C2.06907 10.1925 4.59658 14.25 9.01408 14.25H9.20158C13.3491 14.145 15.7566 10.5 16.4016 9.37503C16.4674 9.26101 16.5021 9.13168 16.5021 9.00003C16.5021 8.86837 16.4674 8.73904 16.4016 8.62503V8.62503ZM8.99907 11.625C8.4799 11.625 7.97238 11.4711 7.5407 11.1826C7.10902 10.8942 6.77257 10.4842 6.57389 10.0046C6.37521 9.52491 6.32323 8.99711 6.42451 8.48791C6.5258 7.97871 6.77581 7.51098 7.14292 7.14387C7.51003 6.77676 7.97776 6.52675 8.48696 6.42546C8.99616 6.32418 9.52396 6.37616 10.0036 6.57484C10.4833 6.77352 10.8932 7.10998 11.1817 7.54165C11.4701 7.97333 11.6241 8.48085 11.6241 9.00003C11.6241 9.69622 11.3475 10.3639 10.8552 10.8562C10.3629 11.3485 9.69527 11.625 8.99907 11.625V11.625Z" fill="#5D6C7B"/>
		</g>
	</symbol>

	<!-- close -->
	<symbol id="close" viewBox="0 0 29 29">
		<g>
			<rect x="21.5859" y="7.44312" width="20" height="1.05263" transform="rotate(135 21.5859 7.44312)"/>
			<rect x="20.5078" y="21.9202" width="20" height="0.999999" transform="rotate(-135 20.5078 21.9202)"/>
		</g>
	</symbol>

	<!-- arrow -->
	<symbol id="arrow" viewBox="0 0 7 12">
		<g>
			<path d="M11.4596 5.45962C11.7135 5.20578 11.7135 4.79422 11.4596 4.54038L7.32304 0.403806C7.0692 0.149965 6.65765 0.149965 6.40381 0.403806C6.14997 0.657647 6.14997 1.0692 6.40381 1.32304L10.0808 5L6.40381 8.67696C6.14997 8.9308 6.14997 9.34235 6.40381 9.59619C6.65765 9.85003 7.0692 9.85003 7.32304 9.59619L11.4596 5.45962ZM0 5.65H11V4.35H0V5.65Z" />
		</g>
	</symbol>

</svg>